<svg width="131" height="44" viewBox="0 0 131 44" fill="none" xmlns="http://www.w3.org/2000/svg">
<g opacity="0.5">
<path d="M129.766 37.0656C128.122 38.7457 119.486 33.7053 119.486 34.5453C119.486 32.8652 129.766 33.7053 131 33.7053C129.766 31.185 110.028 35.3854 109.206 29.5049C111.262 27.8247 118.664 32.8652 119.075 29.5049C118.664 29.5049 112.907 26.9847 112.907 26.1446C113.318 25.3045 117.019 26.1446 117.841 26.1446C116.608 24.4644 99.7482 24.4644 99.7482 22.7843C99.7482 21.9442 111.673 23.6244 113.318 23.6244C109.617 19.424 66.0292 18.5839 66.0292 17.7438C66.0292 21.1041 89.0569 17.7438 90.2905 21.9442C89.0569 24.4644 83.2999 19.424 81.6551 21.9442C82.4775 21.9442 86.5896 21.9442 86.1784 24.4644C85.7672 28.6648 82.0663 19.424 82.8887 24.4644C82.0663 25.3045 76.3094 24.4644 75.8982 23.6244C75.8982 23.6244 65.618 19.424 68.9077 22.7843C61.506 24.4644 49.9922 16.0637 43.0016 16.9038C43.8241 18.5839 35.5999 18.5839 33.1327 18.5839C32.3103 20.2641 30.6654 17.7438 30.6654 16.9038C29.0206 16.9038 27.3758 20.2641 25.3197 19.424C25.7309 19.424 26.1421 18.5839 26.1421 18.5839C24.9085 17.7438 12.9835 21.1041 12.1611 17.7438C12.9835 17.7438 14.2171 17.7438 15.0395 16.9038C14.2171 16.9038 13.3947 16.9038 12.9835 16.0637C13.8059 16.0637 16.6844 18.5839 17.5068 16.9038C17.0956 16.9038 16.2732 16.9038 15.4508 16.0637C16.2732 14.3835 33.9551 13.5435 36.8335 15.2236C39.3008 12.7034 63.9732 20.2641 64.7956 16.9038C62.7396 10.1832 45.8801 14.3835 41.768 13.5435C35.1887 13.5435 28.1982 15.2236 21.6189 15.2236C19.974 15.2236 9.69385 15.2236 10.9275 16.9038C7.2266 21.1041 -0.586335 11.0232 3.93695 23.6244C-6.75444 34.5453 7.2266 32.0251 11.7499 37.0656C16.2732 42.106 26.9646 36.2255 32.3102 37.0656C39.712 37.9056 46.7025 37.0656 54.1042 37.9056C66.8517 38.7457 79.5991 38.7457 92.3465 40.4259C96.8698 41.2659 114.14 46.3064 116.608 40.4259C119.075 34.5453 128.944 43.7862 131 37.9056C131 37.0656 130.178 37.0656 129.766 37.0656ZM2.29212 30.345C2.70332 30.345 3.11453 30.345 3.11453 30.345C2.70332 31.185 2.70332 31.185 2.29212 30.345ZM43.8241 21.1041C44.2353 21.1041 47.1137 21.9442 47.1137 22.7843C45.4689 25.3045 41.3568 20.2641 43.8241 21.1041ZM42.5904 17.7438C43.0016 20.2641 42.5904 17.7438 42.5904 17.7438C42.5904 18.5839 42.5904 18.5839 42.5904 17.7438ZM40.9456 17.7438C40.9456 17.7438 41.3568 17.7438 40.9456 17.7438C40.9456 18.5839 40.9456 18.5839 40.9456 17.7438ZM39.3008 21.9442C40.5344 21.1041 41.768 20.2641 42.5904 21.9442C41.768 23.6244 37.2447 21.9442 39.3008 21.9442ZM29.0206 18.5839C29.843 18.5839 29.0206 18.5839 29.0206 18.5839V18.5839ZM11.7499 18.5839L11.3387 17.7438C11.7499 17.7438 11.7499 17.7438 11.7499 18.5839ZM10.9275 16.0637C12.1611 16.0637 10.1051 16.0637 10.9275 16.0637C11.3387 16.0637 10.5163 16.0637 10.9275 16.0637ZM11.7499 21.9442C11.3387 21.9442 10.9275 21.9442 10.5163 21.9442C10.9275 21.9442 11.3387 21.9442 11.7499 21.9442ZM9.28264 16.9038C10.1051 18.5839 8.04902 13.5435 9.28264 16.9038C9.69385 16.9038 9.28264 16.0637 9.28264 16.9038ZM4.34815 23.6244C3.93695 23.6244 5.17057 22.7843 4.34815 23.6244V23.6244ZM6.40419 21.9442C5.17057 21.9442 4.34815 21.1041 3.11453 20.2641C5.17057 21.1041 7.63781 21.1041 9.69385 21.1041C8.87143 21.9442 7.63781 22.7843 6.40419 21.9442C7.2266 21.9442 5.99298 21.9442 6.40419 21.9442ZM7.63781 32.8652C9.69385 32.8652 11.7499 32.8652 13.3947 33.7053C11.3387 32.8652 9.69385 33.7053 7.63781 32.8652ZM17.0956 34.5453C16.2732 34.5453 15.862 34.5453 15.0395 33.7053C22.0301 32.0251 19.974 35.3854 17.0956 34.5453ZM18.3292 24.4644C18.7404 22.7843 18.3292 26.1446 18.3292 24.4644V24.4644ZM19.5628 24.4644C19.1516 24.4644 19.974 24.4644 19.5628 24.4644V24.4644ZM19.974 34.5453C21.6189 33.7053 23.2637 33.7053 24.9085 33.7053C23.2637 33.7053 21.6189 34.5453 19.974 34.5453ZM37.6559 33.7053C33.5439 33.7053 29.4318 33.7053 25.3197 33.7053C25.7309 32.0251 37.6559 33.7053 37.6559 33.7053C38.0672 33.7053 33.9551 33.7053 37.6559 33.7053ZM38.0672 21.9442C35.5999 23.6244 12.9835 25.3045 12.1611 21.9442C19.5628 16.0637 31.4878 26.9847 38.0672 21.9442ZM38.0672 21.1041C38.4784 21.1041 38.4784 21.1041 38.8896 21.1041C38.4784 21.1041 38.0672 21.1041 38.0672 21.1041ZM45.8801 33.7053C43.4128 32.8652 40.9456 35.3854 38.4784 33.7053C41.3568 33.7053 44.6465 33.7053 47.5249 33.7053C47.1137 33.7053 46.2913 33.7053 45.8801 33.7053C46.2913 33.7053 45.4689 33.7053 45.8801 33.7053ZM51.2258 22.7843C54.5154 23.6244 47.5249 23.6244 47.5249 21.9442C47.5249 20.2641 52.4594 22.7843 51.2258 22.7843ZM69.7301 21.9442C69.3189 22.7843 69.3189 21.9442 68.9077 21.9442C69.3189 21.1041 69.3189 21.9442 69.7301 21.9442ZM53.693 21.9442H53.2818C53.693 21.9442 53.693 21.9442 53.693 21.9442ZM66.0292 35.3854C66.4405 35.3854 66.4404 35.3854 66.8517 35.3854C66.8517 36.2255 66.4405 36.2255 66.0292 35.3854ZM67.6741 36.2255C67.6741 33.7053 68.4965 33.7053 70.9637 37.0656C70.1413 36.2255 68.9077 36.2255 67.6741 36.2255ZM71.7861 36.2255C72.1974 36.2255 72.6086 36.2255 73.0198 36.2255C72.1974 37.0656 72.1974 37.0656 71.7861 36.2255ZM71.3749 26.1446C66.4405 25.3045 56.1603 27.8247 52.0482 21.9442C56.5715 19.424 73.8422 21.9442 77.9543 26.9847C75.8982 26.9847 73.8422 26.9847 71.3749 26.1446C73.8422 26.9847 69.3189 26.1446 71.3749 26.1446ZM90.7017 23.6244C90.7017 22.7843 91.1129 24.4644 90.7017 23.6244C90.7017 23.6244 91.1129 23.6244 90.7017 23.6244ZM91.5241 23.6244C91.5241 21.9442 91.9353 24.4644 91.5241 23.6244C91.5241 23.6244 91.9353 23.6244 91.5241 23.6244ZM92.3465 24.4644C91.9353 24.4644 92.7577 24.4644 92.3465 24.4644V24.4644ZM93.1689 24.4644C93.1689 21.1041 93.5801 26.9847 93.1689 24.4644C93.1689 23.6244 93.5801 25.3045 93.1689 24.4644ZM94.4025 24.4644C93.9913 23.6244 94.8138 23.6244 94.4025 24.4644C94.4025 23.6244 94.4025 23.6244 94.4025 24.4644ZM95.225 21.9442C93.5801 21.9442 91.9353 21.9442 90.2905 21.1041C91.9353 19.424 96.0474 21.9442 95.225 21.9442ZM96.8698 25.3045C93.9913 25.3045 96.8698 24.4644 96.8698 25.3045C96.4586 25.3045 96.8698 25.3045 96.8698 25.3045ZM96.0474 21.9442C96.4586 21.1041 96.8698 21.9442 97.281 21.9442C96.8698 21.9442 96.4586 22.7843 96.0474 21.9442ZM97.6922 21.9442C98.5146 21.1041 99.337 21.1041 99.7482 21.9442C99.7482 22.7843 97.6922 21.9442 97.6922 21.9442C98.1034 22.7843 98.1034 21.9442 97.6922 21.9442ZM99.337 25.3045C98.9258 25.3045 100.571 25.3045 99.337 25.3045C99.337 25.3045 99.7482 25.3045 99.337 25.3045ZM100.571 25.3045C100.982 25.3045 101.393 24.4644 101.804 24.4644C101.393 24.4644 100.982 25.3045 100.571 25.3045C100.982 25.3045 100.571 24.4644 100.571 25.3045ZM103.038 28.6648C103.86 27.8247 104.272 28.6648 105.094 28.6648C104.272 29.5049 103.86 29.5049 103.038 28.6648ZM104.683 26.1446C103.449 26.9847 102.215 26.9847 101.804 25.3045C102.215 22.7843 105.916 26.1446 104.683 26.1446ZM108.795 29.5049H109.206C108.795 30.345 108.795 30.345 108.795 29.5049ZM116.608 37.9056C116.197 37.0656 117.019 37.9056 116.608 37.9056V37.9056ZM124.009 37.0656C123.598 37.0656 124.421 37.0656 124.009 37.0656V37.0656Z" fill="#A29BFE"/>
<path d="M13.3912 5.1425C16.6809 5.98257 19.9705 5.1425 23.6714 5.1425C23.6714 7.66272 31.4843 5.1425 33.5404 5.98257C33.5404 5.1425 33.9516 5.1425 34.3628 5.1425C32.3068 5.1425 45.0542 -0.738024 39.2973 5.1425C39.7085 5.1425 45.0542 6.82265 45.0542 5.1425C45.0542 5.1425 41.3533 5.98257 41.7645 4.30242C41.7645 2.62228 55.7456 5.1425 56.9792 5.98257C56.1568 7.66272 47.1102 3.46235 47.1102 5.98257C47.1102 9.34287 115.371 11.8631 122.361 14.3833C122.772 11.023 94.3991 5.98257 93.9879 5.1425C94.8103 4.30243 95.6327 4.30242 96.4551 4.30242C95.2215 -1.5781 84.5301 3.46235 82.0628 3.46235C73.8387 3.46235 65.6146 0.102051 57.3904 0.102051C48.3438 0.102051 39.7085 0.102051 31.4843 0.942126C25.3162 1.7822 15.8585 6.82265 10.1016 4.30242C10.924 5.98257 12.1576 5.98257 13.3912 5.1425ZM79.1844 9.34287C80.0068 9.34287 78.7732 9.34287 79.1844 9.34287V9.34287ZM77.9508 9.34287C77.5396 9.34287 77.1284 9.34287 76.3059 9.34287C76.7172 9.34287 77.1284 9.34287 77.9508 9.34287ZM75.8947 9.34287C75.4835 9.34287 75.0723 9.34287 75.0723 9.34287C75.4835 9.34287 75.4835 9.34287 75.8947 9.34287ZM73.4275 8.5028C75.4835 8.5028 76.3059 11.8631 70.9602 8.5028C71.7827 8.5028 72.6051 8.5028 73.4275 8.5028ZM70.549 8.5028C68.9042 8.5028 67.2594 8.5028 66.0258 7.66272C67.2594 7.66272 68.9042 8.5028 70.549 8.5028ZM64.7921 7.66272C66.0258 6.82265 64.7921 7.66272 64.7921 7.66272C65.2033 7.66272 64.7921 7.66272 64.7921 7.66272ZM64.3809 7.66272C64.3809 9.34287 63.9697 9.34287 62.7361 7.66272C63.1473 6.82265 63.5585 6.82265 64.3809 7.66272C63.5585 6.82265 64.3809 7.66272 64.3809 7.66272ZM59.0352 5.98257C60.2689 5.1425 61.0913 5.1425 61.9137 6.82265C58.624 8.5028 57.8016 7.66272 59.0352 5.98257ZM58.624 6.82265C58.2128 6.82265 57.3904 6.82265 56.9792 5.98257C57.3904 5.98257 58.2128 5.1425 58.624 6.82265ZM33.1292 5.1425C33.5404 5.1425 32.3068 5.1425 33.1292 5.1425V5.1425ZM24.0826 5.98257C23.6714 5.98257 23.6714 5.98257 23.2602 5.1425C23.6714 5.1425 23.6714 5.1425 24.0826 5.98257Z" fill="#A29BFE"/>
<path d="M121.13 16.9039C113.317 15.2237 105.093 13.5436 97.2799 12.7035C93.5791 12.7035 85.3549 8.50312 82.0652 11.8634C83.7101 11.8634 85.3549 11.8634 86.9997 12.7035C85.3549 12.7035 70.5514 12.7035 70.5514 11.0233C72.6075 11.8634 74.6635 11.8634 76.7196 11.8634C73.8411 11.0233 71.3739 10.1833 68.4954 10.1833C70.1402 11.8634 70.5514 11.0233 68.0842 11.0233C65.2058 11.0233 62.3273 10.1833 59.4488 10.1833C56.5704 9.3432 54.1032 8.50312 52.8695 9.3432C48.3463 11.0233 18.7393 5.14282 18.3281 11.0233C19.5617 12.7035 19.973 11.0233 19.973 12.7035C21.6178 14.3836 27.7859 12.7035 29.4307 11.8634C30.6643 11.0233 59.0376 11.8634 59.0376 14.3836C59.0376 14.3836 76.3083 16.9039 75.8971 16.9039C77.9532 17.7439 89.8782 16.0638 89.8782 17.7439L89.467 18.584C90.7006 18.584 98.1023 21.9443 100.57 19.4241C100.158 19.4241 100.158 18.584 99.7472 18.584C105.504 11.8634 118.251 25.3046 124.831 20.2642C123.597 20.2642 122.775 19.4241 121.541 19.4241C123.186 18.584 124.831 18.584 126.476 18.584C124.42 17.7439 122.775 17.7439 121.13 16.9039ZM22.4402 12.7035C22.029 11.8634 22.8514 12.7035 22.4402 12.7035C22.4402 11.8634 22.4402 12.7035 22.4402 12.7035ZM31.4868 11.8634C31.898 11.8634 31.898 11.8634 32.3092 11.8634C31.898 11.8634 31.898 11.8634 31.4868 11.8634ZM37.6549 11.0233C36.8325 11.0233 37.6549 11.0233 37.6549 11.0233C37.2437 11.0233 37.6549 11.0233 37.6549 11.0233ZM38.8885 11.0233C38.4773 11.0233 39.2997 11.0233 38.8885 11.0233V11.0233ZM42.5894 11.8634C41.7669 12.7035 43.0006 11.0233 42.5894 11.8634V11.8634ZM44.2342 11.8634C43.4118 11.8634 45.4678 11.0233 44.2342 11.8634C43.823 11.8634 44.2342 11.8634 44.2342 11.8634ZM45.0566 11.8634C44.6454 13.5436 45.4678 10.1833 45.0566 11.8634V11.8634ZM48.7575 11.8634C48.3463 11.8634 49.5799 11.8634 48.7575 11.8634V11.8634ZM50.8135 12.7035C49.5799 11.0233 51.2247 11.0233 50.8135 12.7035C50.4023 12.7035 50.8135 12.7035 50.8135 12.7035ZM52.8695 11.8634C52.4583 11.8634 52.8695 11.8634 52.8695 11.8634V11.8634ZM58.2152 12.7035C58.6264 12.7035 58.6264 12.7035 58.6264 13.5436C58.6264 13.5436 58.2152 12.7035 58.2152 12.7035ZM63.5609 13.5436C63.9721 13.5436 63.9721 13.5436 64.3833 13.5436C63.9721 14.3836 63.9721 14.3836 63.5609 13.5436ZM82.0652 16.9039C81.2428 16.0638 82.4765 16.9039 82.0652 16.9039C81.654 16.9039 82.0652 16.9039 82.0652 16.9039ZM87.4109 13.5436C87.4109 11.8634 87.8222 11.8634 89.0558 13.5436C88.2334 13.5436 87.8221 13.5436 87.4109 13.5436C87.8221 13.5436 87.4109 13.5436 87.4109 13.5436ZM89.467 13.5436C91.523 13.5436 89.467 13.5436 89.467 13.5436C89.8782 13.5436 89.8782 14.3836 89.467 13.5436ZM90.7006 14.3836C89.8782 13.5436 90.2894 12.7035 92.7566 14.3836C91.9342 14.3836 91.523 14.3836 90.7006 14.3836ZM94.8127 18.584C95.2239 18.584 95.2239 18.584 95.6351 18.584C95.2239 18.584 94.8127 18.584 94.8127 18.584ZM97.2799 14.3836C94.4015 16.9039 93.1678 16.9039 93.1678 13.5436C96.0463 11.0233 97.2799 11.8634 97.2799 14.3836C97.2799 14.3836 96.0463 14.3836 97.2799 14.3836ZM98.9247 19.4241C98.9247 18.584 98.9247 18.584 99.7472 19.4241C98.9247 19.4241 98.9247 19.4241 98.9247 19.4241ZM99.336 15.2237C98.9247 14.3836 99.7472 15.2237 99.336 15.2237C99.336 14.3836 99.336 15.2237 99.336 15.2237ZM120.719 20.2642C120.719 19.4241 121.13 20.2642 121.13 20.2642C121.13 20.2642 120.719 19.4241 120.719 20.2642Z" fill="#A29BFE"/>
<path d="M17.5045 11.0233C17.0933 11.0233 14.2148 10.1832 14.2148 11.8633C15.0373 13.5435 17.0933 11.8633 17.5045 11.0233C17.5045 11.0233 17.5045 10.1832 17.5045 11.0233Z" fill="#A29BFE"/>
<path d="M34.7707 5.98241C34.3595 5.98241 38.0604 7.66256 38.4716 5.98241C38.0604 5.98241 37.6491 5.98241 38.0604 5.14233C39.294 5.98241 27.369 5.14233 34.7707 5.98241Z" fill="#A29BFE"/>
<path d="M124.422 25.3043C125.655 25.3043 128.123 26.1443 128.945 25.3043C127.712 25.3043 126.067 25.3043 124.422 25.3043C126.067 24.4642 124.833 25.3043 124.422 25.3043Z" fill="#A29BFE"/>
<path d="M24.4949 17.7438C27.3733 17.7438 20.3828 15.2236 20.3828 16.9037C20.3828 17.7438 28.1958 17.7438 24.4949 17.7438Z" fill="#A29BFE"/>
<path d="M81.6472 12.7031C80.4136 11.863 78.7688 11.863 77.5352 12.7031C78.7688 13.5431 80.0024 13.5431 81.6472 12.7031C81.236 12.7031 80.4136 11.863 81.6472 12.7031Z" fill="#A29BFE"/>
<path d="M67.2574 11.0232C67.2574 8.503 66.4349 8.503 64.3789 11.0232C65.6125 11.8633 66.4349 12.7034 67.2574 11.0232Z" fill="#A29BFE"/>
<path d="M49.1693 7.66284C48.3469 7.66284 47.5245 7.66284 47.1133 7.66284C47.5245 8.50292 48.3469 8.50292 49.1693 7.66284Z" fill="#A29BFE"/>
<path d="M54.5195 17.7438C54.5195 18.5839 57.398 18.5839 56.9868 17.7438C56.5756 16.9038 55.7532 16.9038 54.5195 17.7438C54.9307 17.7438 54.5195 17.7438 54.5195 17.7438Z" fill="#A29BFE"/>
<path d="M17.9102 16.9036C19.1438 17.7437 19.1438 17.7437 19.555 16.9036C19.1438 16.0636 18.7326 16.9036 17.9102 16.9036Z" fill="#A29BFE"/>
<path d="M17.5078 9.34319C18.3302 9.34319 19.5638 10.1833 20.3863 9.34319C19.5638 8.50312 18.3302 8.50312 17.5078 9.34319Z" fill="#A29BFE"/>
<path d="M38.0703 16.9035C38.4815 16.9035 39.7151 16.9035 39.7151 16.9035C38.8927 16.0634 38.8927 16.0634 38.0703 16.9035Z" fill="#A29BFE"/>
<path d="M28.6175 16.9036C28.2063 16.9036 27.7951 16.9036 26.9727 16.9036C27.3839 17.7436 30.2623 16.9036 28.6175 16.9036Z" fill="#A29BFE"/>
<path d="M54.5195 9.34333C55.3419 9.34333 55.7532 9.34333 56.1644 9.34333C55.7532 8.50325 54.9307 7.66318 54.5195 9.34333Z" fill="#A29BFE"/>
<path d="M79.18 21.944C78.7688 21.1039 77.9464 21.1039 77.5352 21.944C77.9464 21.1039 78.3576 21.944 79.18 21.944Z" fill="#A29BFE"/>
<path d="M70.5459 20.2637C68.0786 17.7434 70.9571 20.2637 70.5459 20.2637C70.1347 19.4236 70.5459 20.2637 70.5459 20.2637Z" fill="#A29BFE"/>
<path d="M17.9116 12.7032C19.1452 11.023 17.5003 13.5432 17.9116 12.7032V12.7032Z" fill="#A29BFE"/>
<path d="M33.1367 16.9034C33.1367 20.2637 36.4264 13.5431 33.1367 16.9034C33.1367 16.9034 33.5479 16.9034 33.1367 16.9034Z" fill="#A29BFE"/>
<path d="M45.8742 5.98267C45.463 5.98267 45.0518 5.98267 44.6406 5.98267C45.0518 5.98267 45.463 6.82274 45.8742 5.98267Z" fill="#A29BFE"/>
<path d="M41.761 7.66284C41.3498 7.66284 40.9386 7.66284 40.5273 7.66284C40.9386 8.50292 41.3498 8.50292 41.761 7.66284Z" fill="#A29BFE"/>
<path d="M36.0156 16.9035C36.4268 16.9035 36.838 16.9035 37.2492 16.9035C36.4268 16.0634 36.4268 16.0634 36.0156 16.9035Z" fill="#A29BFE"/>
<path d="M80.4123 21.104C80.0011 21.104 79.5898 21.104 79.5898 21.104C79.5898 21.9441 80.0011 21.9441 80.4123 21.104Z" fill="#A29BFE"/>
<path d="M12.1602 6.82259C12.5714 7.66266 12.9826 6.82259 12.9826 6.82259C12.9826 6.82259 12.5714 5.98251 12.1602 6.82259Z" fill="#A29BFE"/>
<path d="M35.5932 8.50275C34.3596 6.8226 38.4717 7.66267 35.5932 8.50275C35.182 8.50275 35.5932 8.50275 35.5932 8.50275Z" fill="#A29BFE"/>
<path d="M66.4328 19.4239C66.0216 19.4239 65.6104 18.5838 65.1992 19.4239C66.0216 19.4239 66.0216 19.4239 66.4328 19.4239Z" fill="#A29BFE"/>
<path d="M93.1641 18.584C93.5753 19.4241 93.9865 18.584 94.3977 18.584C93.9865 18.584 93.5753 18.584 93.1641 18.584Z" fill="#A29BFE"/>
<path d="M76.3118 21.1038C75.9005 20.2638 75.4893 21.1038 75.0781 21.1038C75.4893 21.1038 75.9005 21.1038 76.3118 21.1038Z" fill="#A29BFE"/>
<path d="M41.7638 16.9036C41.3526 16.9036 41.3526 16.0636 40.9414 16.9036C41.3526 17.7437 41.7638 16.9036 41.7638 16.9036Z" fill="#A29BFE"/>
<path d="M56.9727 9.34253C57.3839 9.34253 57.3839 10.1826 57.7951 9.34253C57.3839 9.34253 56.9727 9.34253 56.9727 9.34253Z" fill="#A29BFE"/>
<path d="M70.5469 20.2637C70.9581 20.2637 70.9581 20.2637 71.3693 19.4236C70.9581 19.4236 70.9581 19.4236 70.5469 20.2637Z" fill="#A29BFE"/>
<path d="M72.6055 20.2641C73.0167 19.4241 72.6055 21.9443 72.6055 20.2641C72.6055 20.2641 72.6055 21.1042 72.6055 20.2641Z" fill="#A29BFE"/>
<path d="M29.4307 12.7032C30.2531 11.8631 27.7859 13.5433 29.4307 12.7032V12.7032Z" fill="#A29BFE"/>
<path d="M62.7443 18.584C62.3331 18.584 62.3331 18.584 61.9219 18.584C62.3331 19.4241 62.3331 19.4241 62.7443 18.584Z" fill="#A29BFE"/>
<path d="M13.8122 11.0233C13.8122 10.1832 11.7562 11.0233 13.8122 11.0233V11.0233Z" fill="#A29BFE"/>
<path d="M38.4688 8.50261C40.5248 7.66254 38.4688 7.66254 38.4688 8.50261C38.88 8.50261 38.4688 8.50261 38.4688 8.50261Z" fill="#A29BFE"/>
<path d="M123.607 14.3835C122.373 14.3835 123.607 15.2236 123.607 14.3835C123.607 14.3835 123.607 15.2236 123.607 14.3835Z" fill="#A29BFE"/>
<path d="M51.6445 16.9036C51.6445 17.7436 52.0557 17.7436 52.0557 16.9036H51.6445Z" fill="#A29BFE"/>
<path d="M11.3331 11.863L10.9219 11.0229C10.9219 11.863 11.3331 11.863 11.3331 11.863Z" fill="#A29BFE"/>
<path d="M75.0747 21.1041C75.4859 20.264 74.2523 21.9442 75.0747 21.1041V21.1041Z" fill="#A29BFE"/>
<path d="M111.673 21.1038C111.262 21.1038 112.907 20.2638 111.673 21.1038C111.673 21.1038 112.084 20.2638 111.673 21.1038Z" fill="#A29BFE"/>
<path d="M38.4688 5.14275H38.88C38.88 4.30268 38.4688 4.30268 38.4688 5.14275Z" fill="#A29BFE"/>
<path d="M121.538 21.1041C121.127 21.9442 121.538 20.264 121.538 21.1041C121.538 21.9442 121.538 21.1041 121.538 21.1041Z" fill="#A29BFE"/>
<path d="M117.836 21.104C118.247 21.9441 118.247 21.104 117.836 21.104V21.104Z" fill="#A29BFE"/>
<path d="M104.262 19.4236C104.673 21.1037 104.262 19.4236 104.262 19.4236C104.262 20.2637 104.262 19.4236 104.262 19.4236Z" fill="#A29BFE"/>
<path d="M68.0938 20.2641C68.505 21.1042 68.505 20.2641 68.9162 20.2641C68.505 19.424 68.0938 19.424 68.0938 20.2641Z" fill="#A29BFE"/>
<path d="M63.149 19.4239C63.9714 18.5838 62.7378 19.4239 63.149 19.4239V19.4239Z" fill="#A29BFE"/>
<path d="M30.671 8.50301C30.2598 7.66293 30.671 8.50301 30.671 8.50301V8.50301Z" fill="#A29BFE"/>
<path d="M38.4742 17.7435C38.063 16.9034 38.8854 17.7435 38.4742 17.7435V17.7435Z" fill="#A29BFE"/>
<path d="M114.543 23.6241C114.954 23.6241 114.543 22.784 114.543 23.6241V23.6241Z" fill="#A29BFE"/>
<path d="M114.961 21.104C115.372 21.9441 114.961 21.104 114.961 21.104C115.372 21.104 114.961 21.104 114.961 21.104Z" fill="#A29BFE"/>
<path d="M124.429 14.3834C124.429 13.5433 124.018 15.2235 124.429 14.3834V14.3834Z" fill="#A29BFE"/>
<path d="M124.825 14.3835C125.236 15.2236 124.002 14.3835 124.825 14.3835V14.3835Z" fill="#A29BFE"/>
<path d="M54.521 16.9036C54.1098 17.7436 54.9323 16.9036 54.521 16.9036V16.9036Z" fill="#A29BFE"/>
<path d="M27.7945 8.50269C27.3833 8.50269 28.2057 9.34276 27.7945 8.50269V8.50269Z" fill="#A29BFE"/>
<path d="M48.7554 16.9036C49.1666 16.9036 48.3442 17.7436 48.7554 16.9036V16.9036Z" fill="#A29BFE"/>
<path d="M33.1256 17.7434C32.7144 17.7434 33.948 18.5835 33.1256 17.7434C33.1256 17.7434 33.5368 18.5835 33.1256 17.7434Z" fill="#A29BFE"/>
</g>
</svg>
