<svg width="91" height="47" viewBox="0 0 91 47" fill="none" xmlns="http://www.w3.org/2000/svg">
<g opacity="0.5">
<path d="M90.8989 32.3649L89.6003 30.1163C90.8989 29.5541 90.8989 28.992 90.3795 26.1812C90.3795 26.7433 88.5615 17.1868 89.86 19.9975C88.8212 17.7489 90.3795 16.6246 88.0421 13.8138C86.2241 11.5652 83.627 12.1274 81.809 9.87877C77.6536 4.8194 71.1608 -0.239977 65.9666 0.884328C58.9544 2.00863 49.6048 -2.48859 42.8523 3.13294C43.3718 3.13294 43.6315 3.69509 43.6315 4.25724C43.6315 5.38155 15.0632 5.9437 12.4661 7.63016C13.505 8.75446 14.8035 7.63016 15.5827 8.75446C12.7258 11.0031 9.08989 10.4409 6.23307 12.1274C6.23307 12.1274 8.57047 12.1274 8.31076 12.6895C8.05104 13.2517 6.75249 13.8138 6.23307 14.376C9.3496 16.0624 13.7647 9.87877 17.4006 13.2517C17.1409 14.376 16.8812 14.376 16.3618 14.376C16.8812 15.5003 19.738 13.8138 19.738 14.9381L9.08989 16.0624C9.3496 15.5003 9.60931 15.5003 9.86902 14.9381C6.75249 15.5003 4.15538 17.1868 1.03884 18.8732C1.81798 18.8732 12.4661 14.9381 12.7258 17.1868C12.7258 17.1868 9.3496 18.8732 9.08989 18.8732C11.687 20.5597 7.0122 19.4354 6.23307 19.9975C7.0122 20.5597 5.97336 19.4354 5.71364 20.5597C7.53162 20.5597 9.08989 18.8732 10.6482 20.5597C9.3496 21.1218 4.41509 20.5597 3.63596 22.8083C3.37624 23.9326 6.75249 23.3704 6.23307 23.3704C6.23307 25.619 0.259711 24.4947 0 26.7433C3.37624 29.5541 9.86902 24.4947 13.505 23.9326C11.4273 27.8677 4.6748 22.8083 3.11653 27.8677C5.97336 27.3055 7.79133 26.1812 10.1287 26.1812C9.3496 27.3055 7.53162 27.3055 6.75249 27.3055C7.27191 27.3055 7.53162 27.3055 7.0122 27.8677C7.79133 28.4298 13.2453 25.619 13.505 27.8677C10.1287 30.1163 3.11653 26.1812 0.259711 31.2406C1.55827 32.3649 3.11653 29.5541 4.6748 30.6784C4.15538 31.8027 3.89567 31.8027 3.37624 32.3649C5.97336 32.927 2.59711 32.927 5.45393 32.927C4.41509 33.4892 3.63596 33.4892 2.59711 34.0513C3.89567 35.1756 6.23307 34.0513 7.79133 34.0513C7.27191 34.0513 7.0122 34.6135 6.49278 34.6135C6.23307 34.6135 9.08989 34.6135 9.08989 34.6135C9.08989 35.1756 3.89567 35.7378 4.15538 36.8621C5.19422 36.2999 7.53162 35.7378 8.57047 36.8621C8.83018 36.2999 17.4006 37.9864 19.4783 37.9864C19.2186 39.1107 16.3618 39.6729 15.5827 40.235C16.1021 40.235 17.1409 39.6729 17.6604 40.7972C16.1021 41.3593 14.5438 41.9215 12.9856 43.0458C13.7647 44.7322 22.3352 42.4836 23.374 41.3593C22.5949 40.7972 18.4395 41.3593 18.1798 40.235C18.1798 39.6729 30.6459 37.9864 30.6459 39.6729C29.8668 40.7972 29.0876 41.3593 27.7891 41.9215C30.1265 42.4836 32.4639 41.3593 35.061 41.3593C37.3984 41.3593 39.9955 38.5485 36.879 42.4836C43.3718 43.0458 50.1242 40.7972 56.617 42.4836C59.7336 43.0458 72.9788 43.0458 73.2385 45.2944C73.4982 48.6673 88.5615 43.6079 90.1198 41.3593C89.3406 40.7972 89.86 41.3593 90.1198 40.235C89.86 39.6729 89.6003 39.6729 89.0809 39.6729C89.86 39.1107 90.6392 36.2999 89.0809 34.6135C89.0809 34.6135 91.4183 32.927 90.8989 32.3649ZM9.60931 12.1274C8.31076 12.1274 10.1287 12.1274 9.60931 12.1274C9.3496 12.1274 9.60931 12.1274 9.60931 12.1274ZM10.1287 12.1274C10.1287 11.5652 10.3884 11.5652 10.6482 11.5652C10.3884 12.1274 10.1287 11.5652 10.1287 12.1274ZM11.1676 11.5652C11.1676 12.6895 11.4273 11.0031 11.1676 11.5652V11.5652ZM11.687 11.5652H11.9467C11.9467 11.5652 11.9467 11.5652 11.687 11.5652ZM7.0122 16.6246C5.97336 17.7489 8.57047 15.5003 7.0122 16.6246C6.75249 17.1868 7.27191 16.6246 7.0122 16.6246ZM7.53162 16.0624C7.79133 15.5003 8.31076 15.5003 8.83018 16.0624C8.31076 16.0624 8.05104 16.0624 7.53162 16.0624C7.53162 16.0624 8.05104 16.6246 7.53162 16.0624ZM10.6482 19.9975C10.1287 20.5597 11.1676 19.9975 10.6482 19.9975V19.9975ZM10.9079 22.2461C9.60931 22.8083 7.0122 25.0569 6.23307 23.3704C6.75249 22.8083 11.1676 22.2461 10.9079 22.2461ZM10.6482 26.1812C10.1287 26.1812 11.1676 26.1812 10.6482 26.1812V26.1812ZM12.7258 26.1812C12.4661 25.619 13.2453 26.1812 12.7258 26.1812C12.7258 26.1812 12.9856 26.1812 12.7258 26.1812ZM10.6482 29.5541C11.4273 28.4298 10.3884 29.5541 10.6482 29.5541C10.6482 28.992 10.3884 29.5541 10.6482 29.5541ZM8.57047 29.5541C8.83018 29.5541 9.08989 29.5541 9.60931 29.5541C9.08989 30.1163 8.05104 29.5541 8.57047 29.5541ZM6.75249 30.1163C7.27191 29.5541 7.53162 29.5541 8.05104 30.1163C8.05104 31.2406 5.97335 30.1163 6.75249 30.1163ZM4.6748 30.6784C5.19422 29.5541 5.71364 29.5541 6.23307 30.6784C5.45393 31.2406 4.93451 30.6784 4.6748 30.6784ZM4.93451 31.8027C5.19422 31.8027 5.19422 31.8027 5.45393 31.8027C5.45393 32.3649 5.19422 31.8027 4.93451 31.8027ZM5.45393 31.8027C5.71364 31.8027 5.71364 31.8027 5.97336 31.8027C5.97336 31.8027 5.71364 31.8027 5.45393 31.8027ZM5.71364 32.927C5.97336 32.3649 6.49278 32.3649 7.0122 32.3649C6.75249 32.927 6.23307 32.927 5.71364 32.927ZM8.31076 34.0513C8.05104 34.0513 8.83018 33.4892 8.31076 34.0513C8.31076 34.0513 8.57047 34.0513 8.31076 34.0513ZM7.53162 32.3649C8.57047 31.8027 9.3496 31.8027 10.3884 31.8027C9.3496 32.3649 8.57047 32.3649 7.53162 32.3649ZM9.3496 33.4892C9.60931 33.4892 9.86902 33.4892 10.1287 32.927C9.86902 33.4892 9.86902 33.4892 9.3496 33.4892ZM10.1287 32.927C10.3884 32.927 10.3884 32.927 10.6482 32.927C10.3884 33.4892 10.3884 33.4892 10.1287 32.927ZM10.6482 35.1756C10.6482 34.0513 10.6482 35.7378 10.6482 35.1756V35.1756ZM10.9079 37.9864C10.1287 37.9864 12.7258 37.4242 10.9079 37.9864C10.9079 37.9864 11.1676 37.9864 10.9079 37.9864ZM11.9467 34.6135C11.9467 34.0513 13.2453 34.0513 13.2453 34.0513C12.7258 34.6135 12.2064 34.6135 11.9467 34.6135C11.9467 34.0513 12.2064 35.1756 11.9467 34.6135ZM12.9856 31.2406C12.9856 31.2406 13.2453 32.3649 12.9856 31.2406C12.9856 31.2406 12.9856 31.8027 12.9856 31.2406ZM18.1798 39.6729C17.9201 39.6729 18.4395 39.6729 18.1798 39.6729V39.6729ZM24.4128 34.0513C24.1531 35.1756 24.4128 32.3649 24.4128 34.0513C24.4128 34.0513 24.4128 33.4892 24.4128 34.0513ZM23.374 34.0513C23.1143 35.1756 23.1143 32.927 23.374 34.0513V34.0513ZM22.5949 34.0513C22.5949 34.6135 22.5949 33.4892 22.5949 34.0513V34.0513ZM14.5438 21.684C14.2841 22.2461 14.0244 22.2461 13.7647 22.2461C14.0244 21.684 14.0244 21.684 14.5438 21.684ZM14.0244 19.9975C14.2841 19.4354 14.5438 21.1218 14.0244 19.9975C14.2841 19.9975 14.2841 19.9975 14.0244 19.9975ZM14.8035 21.684C14.8035 21.684 14.8035 22.2461 14.8035 21.684V21.684ZM16.6215 17.7489C17.1409 17.1868 16.6215 18.3111 16.6215 17.7489C16.6215 17.1868 16.6215 17.7489 16.6215 17.7489ZM22.0754 16.0624C21.2963 16.6246 20.7769 16.6246 19.9978 16.0624C20.5172 16.0624 21.556 16.0624 22.0754 16.0624ZM19.9978 14.9381C20.5172 13.2517 20.7769 16.6246 19.9978 14.9381C19.9978 14.9381 20.2575 15.5003 19.9978 14.9381ZM20.7769 13.8138C21.2963 13.8138 21.556 14.376 21.8157 14.9381C21.8157 15.5003 20.5172 15.5003 20.7769 13.8138C21.0366 14.376 20.7769 13.8138 20.7769 13.8138ZM22.3352 14.9381C21.556 15.5003 23.374 14.376 22.3352 14.9381C22.3352 14.9381 22.5949 14.9381 22.3352 14.9381ZM23.374 16.6246C22.0754 12.6895 24.6726 18.3111 24.9323 17.1868C24.9323 17.7489 21.0366 17.7489 20.5172 17.1868C21.2963 17.1868 22.3352 16.6246 23.374 16.6246C23.1143 16.0624 22.3352 17.1868 23.374 16.6246ZM27.7891 16.0624C27.7891 15.5003 28.0488 17.1868 27.7891 16.0624C27.7891 16.0624 27.7891 16.6246 27.7891 16.0624ZM25.192 16.6246C23.1143 17.7489 25.7114 16.0624 25.192 16.6246C24.9323 16.6246 25.192 16.6246 25.192 16.6246ZM23.8934 14.9381C24.1531 14.376 24.1531 14.376 24.6726 14.9381C24.4128 14.9381 24.1531 14.9381 23.8934 14.9381ZM14.0244 23.3704C15.0632 24.4947 13.7647 23.3704 14.0244 23.3704C14.2841 23.9326 14.0244 23.3704 14.0244 23.3704ZM87.0032 18.8732C87.2629 18.8732 86.4838 18.8732 87.0032 18.8732C87.0032 18.8732 86.7435 18.8732 87.0032 18.8732ZM63.3695 3.13294C62.3307 3.69509 61.2918 3.69509 60.5127 3.13294C61.2918 3.13294 62.3307 3.13294 63.3695 3.13294ZM58.6947 2.57079C59.2141 2.57079 59.7336 2.57079 59.9933 2.57079C57.6559 5.38155 58.6947 2.57079 58.6947 2.57079ZM34.5416 12.6895C36.879 13.2517 34.0222 12.6895 34.5416 12.6895C34.8013 13.2517 34.5416 12.6895 34.5416 12.6895ZM33.243 13.2517C32.9833 13.2517 32.7236 13.8138 32.2042 13.2517C32.7236 13.2517 32.9833 13.2517 33.243 13.2517ZM32.4639 16.0624C33.243 16.6246 31.425 14.9381 32.4639 16.0624C32.7236 16.0624 32.4639 16.0624 32.4639 16.0624ZM32.2042 12.1274C32.4639 12.6895 31.6848 12.6895 32.2042 12.1274C32.2042 12.1274 31.9445 12.1274 32.2042 12.1274ZM32.2042 13.2517C31.9445 13.8138 31.6848 13.8138 31.425 13.2517C31.6848 12.6895 31.6848 13.2517 32.2042 13.2517ZM30.6459 16.0624C31.1653 16.0624 29.8668 16.0624 30.6459 16.0624C30.9056 16.0624 30.6459 16.0624 30.6459 16.0624ZM29.8668 16.0624C30.1265 16.0624 28.5682 17.1868 28.8279 16.0624C29.0876 16.0624 29.3474 16.0624 29.8668 16.0624C29.3474 16.0624 29.3474 15.5003 29.8668 16.0624ZM28.8279 8.19231C29.0876 8.19231 28.5682 8.19231 28.8279 8.19231V8.19231ZM28.8279 13.2517C28.5682 13.2517 28.0488 13.2517 27.7891 13.2517C28.0488 13.2517 28.3085 13.2517 28.8279 13.2517C28.5682 13.8138 28.3085 13.2517 28.8279 13.2517ZM27.2697 7.63016C28.0488 7.63016 27.01 8.19231 27.2697 7.63016C27.2697 7.63016 27.2697 8.19231 27.2697 7.63016ZM26.7502 17.1868C24.9323 17.1868 26.4905 16.0624 26.7502 17.1868C26.4905 17.1868 26.7502 16.6246 26.7502 17.1868ZM25.4517 16.6246C25.9711 15.5003 26.4905 16.6246 25.4517 16.6246C25.7114 16.0624 25.7114 16.6246 25.4517 16.6246ZM26.4905 16.0624C26.2308 16.0624 26.7502 17.1868 26.4905 16.0624C26.4905 16.0624 26.4905 16.6246 26.4905 16.0624ZM26.7502 13.2517C26.4905 13.8138 25.4517 13.8138 25.192 12.6895C25.7114 13.2517 26.2308 13.2517 26.7502 13.2517C26.4905 13.8138 26.2308 13.2517 26.7502 13.2517ZM25.192 14.9381C24.6726 14.9381 24.9323 14.376 25.192 14.9381C25.192 14.9381 25.192 14.376 25.192 14.9381ZM23.8934 12.6895C24.1531 12.6895 24.4128 12.6895 24.9323 12.6895C24.9323 12.1274 23.374 14.9381 22.8546 14.9381L23.8934 12.6895C24.1531 12.6895 23.8934 12.6895 23.8934 12.6895ZM23.8934 12.6895C23.6337 13.2517 22.5949 12.6895 23.8934 12.6895V12.6895ZM22.5949 12.6895C24.1531 12.1274 21.2963 13.8138 20.7769 13.8138C21.8157 12.6895 21.556 13.8138 22.5949 12.6895ZM21.0366 8.19231C20.7769 8.19231 20.7769 8.19231 20.5172 8.19231C20.7769 8.19231 21.0366 8.19231 21.0366 8.19231ZM18.4395 13.8138C17.9201 14.9381 16.1021 9.87877 18.9589 13.2517C17.9201 13.2517 17.6604 13.2517 18.4395 13.8138C18.4395 13.8138 18.4395 13.2517 18.4395 13.8138ZM18.6992 13.8138C18.4395 12.6895 20.5172 13.2517 20.7769 13.2517C19.9978 14.376 19.4783 14.376 18.6992 13.8138C18.6992 13.8138 19.738 14.376 18.6992 13.8138ZM18.9589 16.6246C19.738 15.5003 18.6992 16.6246 18.9589 16.6246C19.2186 16.0624 18.9589 16.6246 18.9589 16.6246ZM18.1798 16.6246C18.6992 16.0624 17.6604 16.6246 18.1798 16.6246V16.6246ZM18.9589 17.1868C18.4395 17.1868 18.1798 17.1868 17.9201 17.1868C18.1798 17.1868 18.4395 17.1868 18.9589 17.1868ZM16.8812 16.6246C16.3618 17.1868 16.1021 17.1868 15.5827 16.6246C16.1021 16.6246 16.3618 16.6246 16.8812 16.6246C16.6215 16.6246 16.3618 16.6246 16.8812 16.6246ZM14.0244 16.6246C14.5438 16.6246 13.505 16.6246 14.0244 16.6246V16.6246ZM13.2453 17.7489C14.2841 17.1868 15.323 17.1868 16.3618 17.7489C15.8424 18.3111 11.687 17.7489 13.2453 17.7489ZM11.9467 17.7489C11.687 17.7489 11.687 17.7489 11.4273 17.7489C11.687 17.7489 11.9467 17.7489 11.9467 17.7489ZM11.4273 20.5597C11.687 20.5597 11.687 20.5597 12.2064 20.5597C11.9467 20.5597 11.9467 20.5597 11.4273 20.5597ZM11.9467 22.2461C12.4661 21.684 12.9856 21.684 13.505 22.2461C12.9856 22.2461 12.4661 22.2461 11.9467 22.2461C12.4661 21.684 12.4661 22.2461 11.9467 22.2461ZM13.505 34.6135C13.2453 34.6135 14.0244 34.6135 13.505 34.6135C13.505 34.6135 13.7647 34.6135 13.505 34.6135ZM13.7647 31.2406C13.2453 31.8027 14.5438 31.2406 13.7647 31.2406V31.2406ZM14.2841 34.6135C14.5438 34.0513 14.8035 34.0513 15.0632 34.6135C14.8035 35.1756 14.5438 34.6135 14.2841 34.6135ZM14.8035 37.4242C14.5438 37.4242 14.2841 36.8621 14.8035 37.4242C15.323 36.8621 15.323 36.8621 14.8035 37.4242ZM15.5827 31.2406C15.8424 31.2406 16.1021 31.2406 16.1021 31.2406C16.1021 31.2406 16.1021 31.2406 15.5827 31.2406ZM16.3618 34.6135C16.3618 34.6135 17.1409 34.6135 16.3618 34.6135C16.3618 34.6135 16.6215 34.6135 16.3618 34.6135ZM17.9201 34.6135C15.5827 35.1756 18.4395 34.0513 17.9201 34.6135C17.6604 34.6135 17.9201 34.6135 17.9201 34.6135ZM24.9323 37.9864C23.374 37.9864 21.556 39.1107 19.9978 37.9864C19.738 38.5485 26.4905 37.9864 24.9323 37.9864ZM25.4517 30.6784C23.374 30.6784 26.7502 30.1163 25.4517 30.6784C25.4517 30.6784 25.7114 30.6784 25.4517 30.6784ZM28.8279 32.3649C28.5682 32.3649 29.6071 31.8027 28.8279 32.3649C28.8279 32.3649 29.0876 32.3649 28.8279 32.3649ZM30.6459 34.0513C30.1265 34.6135 30.9056 33.4892 30.6459 34.0513C30.6459 34.0513 30.6459 33.4892 30.6459 34.0513ZM30.6459 39.6729C30.6459 39.1107 30.9056 39.1107 31.1653 39.1107C31.1653 39.6729 30.9056 39.6729 30.6459 39.6729ZM31.9445 39.1107C31.1653 39.6729 32.2042 39.1107 31.9445 39.1107C31.6848 39.1107 31.9445 39.1107 31.9445 39.1107ZM33.243 39.1107C33.7624 39.1107 34.5416 39.1107 35.061 39.1107C34.5416 39.6729 33.7624 39.6729 33.243 39.1107ZM37.6581 39.1107C37.1387 39.1107 36.3596 39.1107 35.8401 39.1107C36.0998 37.9864 37.6581 37.9864 37.6581 39.1107C37.1387 39.1107 37.6581 39.1107 37.6581 39.1107ZM38.4372 39.1107C38.697 38.5485 38.697 39.1107 38.9567 39.1107C38.697 39.1107 38.4372 39.1107 38.4372 39.1107ZM41.2941 39.6729C41.0344 39.6729 41.5538 39.6729 41.2941 39.6729V39.6729ZM42.3329 39.1107C42.5926 39.1107 42.8523 39.1107 43.112 39.1107C42.8523 39.1107 42.5926 39.1107 42.3329 39.1107ZM44.6703 38.5486C44.93 38.5486 44.93 38.5486 45.1897 38.5486C45.1897 39.1107 44.93 39.1107 44.6703 38.5486ZM45.9689 39.1107C45.4494 38.5485 46.4883 39.1107 45.9689 39.1107C45.9689 39.1107 46.2286 39.1107 45.9689 39.1107ZM48.0466 38.5486C47.7868 39.1107 48.0466 38.5486 48.0466 38.5486V38.5486ZM87.5226 32.3649C87.2629 32.927 87.5226 32.3649 87.5226 32.3649C87.2629 32.3649 87.5226 32.3649 87.5226 32.3649ZM88.3018 31.2406C87.7823 30.6784 88.8212 31.2406 88.3018 31.2406C88.3018 31.2406 88.5615 31.2406 88.3018 31.2406ZM89.0809 30.6784C88.8212 30.6784 89.6003 30.1163 89.0809 30.6784V30.6784ZM90.1198 32.3649C89.6003 31.8027 90.3795 32.3649 90.1198 32.3649V32.3649Z" fill="#A29BFE"/>
<path d="M26.4933 1.44697C27.7918 2.00912 28.3113 3.13342 29.6098 2.57127C29.3501 2.57127 29.0904 2.57127 28.8307 2.00912C29.0904 1.44697 29.3501 0.884815 29.8695 0.884815C29.0904 -0.239491 24.1559 0.322662 26.4933 1.44697C26.753 1.44697 26.2336 1.44697 26.4933 1.44697Z" fill="#A29BFE"/>
<path d="M3.63466 4.25726C4.15408 4.81941 4.41379 4.25726 4.93321 3.69511C3.89437 3.69511 3.89437 3.69511 5.19292 2.5708C3.11523 3.13295 2.59581 3.69511 3.63466 4.25726Z" fill="#A29BFE"/>
<path d="M34.5416 1.44643C35.3207 1.44643 32.7236 0.884277 32.4639 0.884277C33.243 1.44643 33.7624 1.44643 34.5416 1.44643Z" fill="#A29BFE"/>
<path d="M17.9235 2.57145C17.6638 2.57145 16.3652 2.00929 16.3652 3.1336C16.8847 2.57145 17.4041 2.57145 17.9235 2.57145C17.6638 2.57145 17.4041 2.57145 17.9235 2.57145Z" fill="#A29BFE"/>
<path d="M8.57284 11.003C8.83255 11.003 9.09226 11.003 9.35197 10.4409C8.57284 9.31656 7.534 12.1273 8.57284 11.003Z" fill="#A29BFE"/>
<path d="M15.0632 2.00929C15.5826 2.00929 15.5826 2.00929 15.3229 0.884989C15.8423 0.322836 13.7647 2.00929 15.0632 2.00929Z" fill="#A29BFE"/>
<path d="M14.5496 9.3173C15.069 8.75515 12.2122 11.0038 13.5108 9.3173C14.0302 9.87946 14.2899 9.87946 14.5496 9.3173Z" fill="#A29BFE"/>
<path d="M5.97339 11.0033C5.19426 11.0033 7.79137 10.4411 5.97339 11.0033C5.97339 11.0033 6.23311 11.0033 5.97339 11.0033Z" fill="#A29BFE"/>
<path d="M6.49316 11.5656C7.53201 10.4413 6.49316 11.0035 6.49316 11.5656C6.75288 11.5656 6.49316 11.0035 6.49316 11.5656Z" fill="#A29BFE"/>
<path d="M7.53047 11.0031C7.53047 11.0031 7.27076 9.8788 7.53047 11.0031V11.0031Z" fill="#A29BFE"/>
<path d="M14.5448 0.884277C14.285 0.884277 14.0253 0.884277 13.7656 0.884277C14.0253 1.44643 14.285 1.44643 14.5448 0.884277Z" fill="#A29BFE"/>
<path d="M5.9746 11.5658C4.67604 11.0036 5.9746 11.5658 5.9746 11.5658C5.9746 11.5658 5.71489 11.0036 5.9746 11.5658Z" fill="#A29BFE"/>
<path d="M10.1281 7.06846C10.1281 6.50631 9.86841 8.19276 10.1281 7.06846V7.06846Z" fill="#A29BFE"/>
<path d="M16.3636 5.38168C16.6233 4.81953 15.8441 5.38168 16.3636 5.38168C16.6233 5.38168 16.3636 5.38168 16.3636 5.38168Z" fill="#A29BFE"/>
</g>
</svg>
